# xmcd
#
# Track frame offsets: 
#        150
#        9927
#        25617
#        39118
#        49418
#        61282
#        71744
#        84813
#        97911
#        111344
#
# Disc length: 1637 seconds
#
# Revision: 2
# Processed by: cddbd v1.5.2PL0 Copyright (c) Steve Scherf et al.
# Submitted via: ExactAudioCopy v1.3
#
DISCID=6e06630a
DTITLE=Roy Clark - Rockin' In The Country
DYEAR=1986
DGENRE=Country/Rock
TTITLE0=Menphis
TTITLE1=Linda Lou
TTITLE2=Too Much Monkey Business
TTITLE3=Don't Mess Around Mama
TTITLE4=Johnny B. Goode
TTITLE5=Night Life
TTITLE6=Juke Box Saturday Night
TTITLE7=Candy Man
TTITLE8=Tobacco Road
TTITLE9=Chantilly Lace
EXTD=
EXTT0=
EXTT1=
EXTT2=
EXTT3=
EXTT4=
EXTT5=
EXTT6=
EXTT7=
EXTT8=
EXTT9=
PLAYORDER=
